<?xml version="1.0" encoding="UTF-8"?>
<!DOCTYPE svg PUBLIC "-//W3C//DTD SVG 1.1//EN" "http://www.w3.org/Graphics/SVG/1.1/DTD/svg11.dtd">
<!-- Creator: CorelDRAW 2019 (64-Bit) -->
<svg xmlns="http://www.w3.org/2000/svg" xml:space="preserve" width="35.983mm" height="39.786mm" version="1.1" style="shape-rendering:geometricPrecision; text-rendering:geometricPrecision; image-rendering:optimizeQuality; fill-rule:evenodd; clip-rule:evenodd"
viewBox="0 0 3598.3 3978.6"
 xmlns:xlink="http://www.w3.org/1999/xlink">
 <defs>
  <style type="text/css">
   <![CDATA[
    .fil0 {fill:white}
   ]]>
  </style>
 </defs>
 <g id="Warstwa_x0020_1">
  <metadata id="CorelCorpID_0Corel-Layer"/>
  <path class="fil0" d="M3483.84 775.34c-1123,284.43 -2246.03,288.84 -3369.04,8.82l-119.06 432.15c409.08,87.08 802.74,147.17 1181.39,181.01l0 2581.68 422.57 0 0 -1200.46 388.06 0 0 1200.46 428.92 0 0 -2567.53c413.15,-30.32 805.4,-97.23 1177.4,-199.57 -36.75,-145.52 -73.49,-291.04 -110.24,-436.56zm-1671.98 12.18c233.88,0 423.47,-176.2 423.47,-393.56 0,-217.36 -189.59,-393.56 -423.47,-393.56 -233.89,0 -423.48,176.2 -423.48,393.56 0,217.36 189.59,393.56 423.48,393.56z"/>
 </g>
</svg>
