<?xml version="1.0" encoding="UTF-8"?>
<!DOCTYPE svg PUBLIC "-//W3C//DTD SVG 1.1//EN" "http://www.w3.org/Graphics/SVG/1.1/DTD/svg11.dtd">
<!-- Creator: CorelDRAW 2019 (64-Bit) -->
<svg xmlns="http://www.w3.org/2000/svg" xml:space="preserve" width="25mm" height="25mm" version="1.1" style="shape-rendering:geometricPrecision; text-rendering:geometricPrecision; image-rendering:optimizeQuality; fill-rule:evenodd; clip-rule:evenodd"
viewBox="0 0 2500 2500"
 xmlns:xlink="http://www.w3.org/1999/xlink">
 <defs>
  <style type="text/css">
   <![CDATA[
    .fil0 {fill:black}
   ]]>
  </style>
 </defs>
 <g id="Warstwa_x0020_1">
  <metadata id="CorelCorpID_0Corel-Layer"/>
  <path class="fil0" d="M15.41 1422.89l668.08 0 0 668.08 -668.08 0 0 -668.08zm1997.77 396.89l-99.34 0 0 271.19 99.34 0 0 -271.19zm-671.46 -1733.04l668.08 0 0 668.08 -668.08 0 0 -668.08zm-1332.77 0l668.08 0 0 668.08 -668.08 0 0 -668.08zm1812.38 777.25l191.85 0 0 102.53 0 191.82 -95.92 0 0 -191.82 -95.93 0 0 -102.53zm-1812.38 360.5l297.64 0 0 -271.2 -297.64 0 0 -95.92 297.64 0 0 95.92 95.91 0 85.99 0 0 181.9 -85.99 0 0 89.3 0 95.91 -393.55 0 0 -95.91zm1147.62 -942.59l0 98.99 99.21 0 0 92.84 0 102.52 -96.73 0 0 -102.52 -96.74 0 0 -92.84 -94.26 0 0 102.76 -92.61 0 -95.91 0 0 767.29 -284.43 0 0 99.22 284.43 0 0 69.46 95.91 0 0 105.83 396.88 0 0 -105.83 277.81 0 0 376.95 -191.82 0 0 102.53 82.68 0 0 82.76 201.75 0 0 109.11 95.91 0 0 -109.11 -6.61 0 0 -82.76 95.91 0 0 -102.53 -188.52 0 0 -376.95 -89.3 0 0 -162.06 79.38 0 0 -307.58 6.61 0 0 -95.91 -575.47 0 0 -85.99 -185.21 0 0 -284.43 0 -201.75 -95.91 0 0 -195.16 476.25 0 0 195.16 -99.21 0zm-281.13 1137.72l396.88 0 0 -175.29 257.97 0 0 -294.35 -469.64 0 0 102.53 -185.21 0 0 367.11zm1137.74 162.06l-102.55 0 0 76.06 102.55 0 0 -76.06zm0 -234.82l-218.31 0 0 72.76 218.31 0 0 -72.76zm-856.61 555.63l102.52 0 0 95.91 -102.52 0 0 -95.91zm-373.73 -89.3l95.91 0 0 277.78 -95.91 0 0 -277.78zm92.6 -198.44l191.83 0 0 191.82 -191.83 0 0 -191.82zm294.35 -942.59l92.61 0 0 102.53 -92.61 0 0 -102.53zm-26.45 472.95l95.91 0 0 95.91 -95.91 0 0 -95.91zm-1028.55 -952.53l456.4 0 0 456.4 -456.4 0 0 -456.4zm85.99 85.99l284.42 0 0 284.42 -284.42 0 0 -284.42zm1246.78 -85.99l456.4 0 0 456.4 -456.4 0 0 -456.4zm85.99 85.99l284.42 0 0 284.42 -284.42 0 0 -284.42zm-1326.31 1336.15l284.42 0 0 284.42 -284.42 0 0 -284.42z"/>
  <path class="fil0" d="M1572.68 1569.13c-116.74,65.15 -251.24,102.32 -394.43,102.32 -447.74,0 -810.7,-362.98 -810.7,-810.72 0,-447.74 362.96,-810.72 810.7,-810.72 447.75,0 810.72,362.98 810.72,810.72 0,209.16 -79.23,399.79 -209.31,543.59l683.59 839.71c45.93,56.43 37.35,140.17 -19.08,186.11l0 0c-56.43,45.93 -140.17,37.35 -186.1,-19.08l-685.39 -841.93zm-397.6 -1263.43c310.03,0 561.36,251.33 561.36,561.35 0,310.02 -251.33,561.36 -561.36,561.36 -310.02,0 -561.35,-251.34 -561.35,-561.36 0,-310.02 251.33,-561.35 561.35,-561.35z"/>
 </g>
</svg>
